<svg width="20" height="12" viewBox="0 0 20 12" fill="none" xmlns="http://www.w3.org/2000/svg">
<path d="M9.84281 11.9019C10.1028 11.7642 10.2649 11.5023 10.2649 11.2175V6.7825H19.1841C19.6345 6.7825 20 6.43195 20 6.00003C20 5.56811 19.6345 5.21756 19.1841 5.21756H10.2649V0.782525C10.2649 0.496663 10.1028 0.234796 9.84281 0.0981252C9.58281 -0.0406327 9.26516 -0.0312431 9.01387 0.120034L0.380745 5.33754C0.143595 5.48151 0 5.73086 0 6.00003C0 6.2692 0.143595 6.51854 0.380745 6.66252L9.01387 11.88C9.14659 11.9593 9.2978 12 9.44901 12C9.5839 12 9.71988 11.9666 9.84281 11.9019Z" fill="#667085"/>
</svg>
