<svg width="20" height="12" viewBox="0 0 20 12" fill="none" xmlns="http://www.w3.org/2000/svg">
<path d="M10.1572 11.9019C9.8972 11.7642 9.73511 11.5023 9.73511 11.2175V6.7825H0.815882C0.365515 6.7825 0 6.43195 0 6.00003C0 5.56811 0.365515 5.21756 0.815882 5.21756H9.73511V0.782525C9.73511 0.496663 9.8972 0.234796 10.1572 0.0981252C10.4172 -0.0406327 10.7348 -0.0312431 10.9861 0.120034L19.6193 5.33754C19.8564 5.48151 20 5.73086 20 6.00003C20 6.2692 19.8564 6.51854 19.6193 6.66252L10.9861 11.88C10.8534 11.9593 10.7022 12 10.551 12C10.4161 12 10.2801 11.9666 10.1572 11.9019Z" fill="white"/>
</svg>
